Coordinates
version=1
nRows=31
nColumns=38
inDegrees=no

Units are S.I. units (second, meters, Newtons, ...)
If the header above contains a line with 'inDegrees', this indicates whether rotational values are in degrees (yes) or radians (no).

endheader
time	pelvis_tilt	pelvis_list	pelvis_rotation	pelvis_tx	pelvis_ty	pelvis_tz	hip_flexion_r	hip_adduction_r	hip_rotation_r	knee_angle_r	ankle_angle_r	subtalar_angle_r	mtp_angle_r	hip_flexion_l	hip_adduction_l	hip_rotation_l	knee_angle_l	ankle_angle_l	subtalar_angle_l	mtp_angle_l	lumbar_extension	lumbar_bending	lumbar_rotation	arm_flex_r	arm_add_r	arm_rot_r	elbow_flex_r	pro_sup_r	wrist_flex_r	wrist_dev_r	arm_flex_l	arm_add_l	arm_rot_l	elbow_flex_l	pro_sup_l	wrist_flex_l	wrist_dev_l
0	3.0037	1.13988	-1.27539	0.858934	-0.748163	1.08356	-0.0491658	0.113619	0.0276152	0.0931266	-0.137534	0	0	-0.523599	-0.196553	-0.279637	0.598872	0.0193101	0	0	-0.621254	0.232802	0.150425	0.7411	-0.674062	0.778822	1.22003	0.414765	0	0	0.576811	-0.373059	0.240872	0.953606	0.798953	0	0
0.01	3.00963	1.14014	-1.27692	0.859199	-0.737109	1.08155	-0.050476	0.112773	0.0512998	0.117686	-0.126281	0	0	-0.523599	-0.200542	-0.278262	0.619258	0.0161762	0	0	-0.635828	0.233886	0.139085	0.772005	-0.677591	0.810439	1.23397	0.378188	0	0	0.565177	-0.402145	0.244481	0.994639	0.770484	0	0
0.02	3.00916	1.1418	-1.27192	0.859378	-0.7243	1.07958	-0.048896	0.115135	0.066497	0.144442	-0.114781	0	0	-0.523599	-0.208119	-0.281375	0.638323	0.0140241	0	0	-0.639029	0.237549	0.127795	0.793927	-0.675196	0.838139	1.23759	0.348296	0	0	0.551511	-0.422772	0.243172	1.02116	0.746143	0	0
0.03	3.00428	1.14209	-1.26103	0.859394	-0.710871	1.07787	-0.0488185	0.120872	0.0747786	0.162935	-0.109462	0	0	-0.523599	-0.219511	-0.284663	0.659507	0.0113288	0	0	-0.638334	0.244066	0.116648	0.810935	-0.670296	0.862837	1.23604	0.324573	0	0	0.538534	-0.437519	0.239462	1.03863	0.726085	0	0
0.04	2.99167	1.13993	-1.23996	0.858849	-0.69729	1.07598	-0.0504712	0.131157	0.075874	0.172302	-0.116417	0	0	-0.523599	-0.234045	-0.271642	0.71474	-0.0333117	0	0	-0.635271	0.256173	0.105338	0.825024	-0.66534	0.885493	1.23295	0.305543	0	0	0.526218	-0.448759	0.235593	1.05077	0.71125	0	0
0.05	2.98606	1.13595	-1.22684	0.858712	-0.683399	1.07512	-0.0576806	0.139974	0.0759831	0.174278	-0.135934	0	0	-0.523599	-0.248067	-0.268356	0.742908	-0.0581808	0	0	-0.634338	0.264984	0.0952539	0.836341	-0.659754	0.905267	1.22891	0.289858	0	0	0.515171	-0.457988	0.231374	1.05938	0.699804	0	0
0.06	2.98465	1.13071	-1.21994	0.858922	-0.669441	1.07459	-0.0687504	0.147274	0.078186	0.173893	-0.162128	0	0	-0.523599	-0.258614	-0.259913	0.773853	-0.0757453	0	0	-0.634479	0.270803	0.0869045	0.844968	-0.653726	0.921547	1.22472	0.276846	0	0	0.505487	-0.465943	0.227226	1.06595	0.691092	0	0
0.07	2.99024	1.1277	-1.22274	0.859573	-0.655433	1.07444	-0.0794422	0.149765	0.0813665	0.173853	-0.189641	0	0	-0.523599	-0.266247	-0.256505	0.798361	-0.0926242	0	0	-0.634939	0.271019	0.0800966	0.852317	-0.647807	0.935368	1.22109	0.266136	0	0	0.497532	-0.472885	0.223155	1.07108	0.683752	0	0
0.08	2.99369	1.11348	-1.22493	0.860219	-0.642122	1.0746	-0.098441	0.156285	0.0827899	0.18195	-0.215951	0	0	-0.523599	-0.268945	-0.226471	0.850195	-0.110786	0	0	-0.642736	0.273574	0.0766398	0.858479	-0.64193	0.946805	1.2167	0.257074	0	0	0.491917	-0.479694	0.22156	1.07524	0.677297	0	0
0.09	3.0222	1.11635	-1.24971	0.861841	-0.630733	1.07659	-0.0980356	0.144799	0.0864948	0.199882	-0.240769	0	0	-0.523599	-0.202829	-0.0621456	0.844291	-0.105329	0	0	-0.650066	0.259709	0.0687758	0.869231	-0.634946	0.955405	1.21197	0.250153	0	0	0.495887	-0.486861	0.220852	1.07701	0.671342	0	0
0.1	3.03665	1.09839	-1.26007	0.862049	-0.618634	1.07828	-0.115685	0.144666	0.0762789	0.226563	-0.259695	0	0	-0.523599	-0.205812	-0.0359484	0.89871	-0.119901	0	0	-0.664845	0.258532	0.0635651	0.875384	-0.62887	0.962009	1.20658	0.2443	0	0	0.496473	-0.49324	0.222974	1.07886	0.666	0	0
0.11	3.02089	1.03804	-1.25603	0.861544	-0.604718	1.0804	-0.173771	0.170364	0.067999	0.262046	-0.272598	0	0	-0.523599	-0.257823	-0.102316	0.963812	-0.161077	0	0	-0.698555	0.275278	0.0773841	0.881937	-0.625797	0.972104	1.20086	0.237931	0	0	0.483923	-0.50078	0.22443	1.07701	0.660218	0	0
0.12	3.01053	1.02108	-1.24778	0.86201	-0.593381	1.08176	-0.186374	0.181321	0.0643014	0.289086	-0.285297	0	0	-0.523599	-0.2779	-0.107917	1.03165	-0.214733	0	0	-0.717791	0.285291	0.0817788	0.903595	-0.625856	0.994143	1.2017	0.225594	0	0	0.484328	-0.512138	0.2317	1.08542	0.648044	0	0
0.13	3.01088	1.01146	-1.24972	0.862646	-0.58189	1.08335	-0.196232	0.183365	0.0558671	0.308636	-0.294624	0	0	-0.523599	-0.282483	-0.0917832	1.08972	-0.264681	0	0	-0.730793	0.286447	0.082105	0.923936	-0.624049	1.01775	1.19991	0.208781	0	0	0.485114	-0.524539	0.240595	1.09333	0.632038	0	0
0.14	3.01618	1.00105	-1.25695	0.86344	-0.570719	1.08516	-0.211189	0.182525	0.045089	0.321212	-0.302411	0	0	-0.52351	-0.282281	-0.072195	1.14391	-0.309753	0	0	-0.744723	0.28559	0.0755091	0.960136	-0.615318	1.06583	1.19031	0.169733	0	0	0.480825	-0.546033	0.250732	1.10666	0.60122	0	0
0.15	3.01734	0.99941	-1.26185	0.864395	-0.558811	1.08655	-0.218195	0.181044	0.0353059	0.332969	-0.303389	0	0	-0.490953	-0.280904	-0.0550705	1.1973	-0.334807	0	0	-0.747338	0.281838	0.0790699	0.966161	-0.613804	1.07178	1.18694	0.166529	0	0	0.48307	-0.543167	0.246759	1.10365	0.602061	0	0
0.16	3.01868	0.99928	-1.26835	0.865455	-0.54671	1.08796	-0.225299	0.178915	0.0264597	0.343719	-0.30145	0	0	-0.458414	-0.277255	-0.0388037	1.24317	-0.357184	0	0	-0.748329	0.276272	0.0829282	0.97056	-0.612005	1.07606	1.18371	0.164224	0	0	0.484239	-0.540731	0.242559	1.10168	0.604001	0	0
0.17	3.02115	0.99926	-1.27757	0.86663	-0.534703	1.08951	-0.233357	0.175998	0.0198915	0.354442	-0.296204	0	0	-0.428468	-0.270957	-0.0241593	1.28054	-0.374631	0	0	-0.74946	0.268831	0.0874538	0.97441	-0.609984	1.07927	1.18025	0.162398	0	0	0.485345	-0.538528	0.238426	1.10018	0.606548	0	0
0.18	3.02413	0.998684	-1.28865	0.867897	-0.522921	1.0912	-0.242601	0.172889	0.0163809	0.364696	-0.289089	0	0	-0.401497	-0.262903	-0.0124849	1.31184	-0.376718	0	0	-0.751503	0.260195	0.0930846	0.978026	-0.608202	1.08141	1.17691	0.161102	0	0	0.487119	-0.536726	0.235341	1.09902	0.609004	0	0
0.19	3.02637	0.997917	-1.30021	0.869281	-0.511182	1.09303	-0.252679	0.170189	0.0155877	0.373548	-0.281897	0	0	-0.376669	-0.254552	-0.00456578	1.3385	-0.363732	0	0	-0.754025	0.251025	0.100036	0.981747	-0.607211	1.08373	1.1743	0.160072	0	0	0.489177	-0.53546	0.233444	1.0984	0.611195	0	0
0.2	3.02674	0.997386	-1.31109	0.870864	-0.499237	1.09498	-0.263357	0.168484	0.0176258	0.380465	-0.274276	0	0	-0.353205	-0.247629	-0.00130347	1.36029	-0.342602	0	0	-0.755972	0.241702	0.1082	0.983972	-0.606306	1.08477	1.17209	0.159284	0	0	0.490406	-0.534584	0.231862	1.09824	0.61362	0	0
0.21	3.1018	1.01191	-1.29237	0.868366	-0.481976	1.09705	-0.291476	0.151594	-0.128062	0.338977	-0.278694	0	0	-0.289364	-0.225036	0.119322	1.38704	-0.326477	0	0	-0.71865	0.229207	0.0225066	0.915392	-0.574278	1.01072	1.15429	0.185252	0	0	0.501322	-0.565455	0.262526	1.09426	0.612755	0	0
0.22	3.10322	1.01096	-1.30122	0.8692	-0.470056	1.09943	-0.305318	0.15007	-0.129061	0.338928	-0.279565	0	0	-0.267452	-0.214742	0.12318	1.39603	-0.313923	0	0	-0.720837	0.221322	0.0269302	0.911997	-0.569262	1.00082	1.14976	0.198591	0	0	0.500738	-0.567052	0.261975	1.09658	0.610027	0	0
0.23	3.03074	1.09378	-1.36806	0.880834	-0.437739	1.10067	-0.234121	0.139139	0.0201563	0.360672	-0.256607	0	0	-0.22985	-0.219285	-0.0604906	1.34788	-0.305193	0	0	-0.620451	0.168547	0.122687	0.849455	-0.560668	0.979264	1.13484	0.242277	0	0	0.41302	-0.51448	0.17854	1.08654	0.648111	0	0
0.24	3.10543	1.01364	-1.31683	0.869764	-0.446218	1.10418	-0.331047	0.144469	-0.133745	0.335293	-0.277654	0	0	-0.220184	-0.191893	0.131683	1.3987	-0.279368	0	0	-0.720419	0.206889	0.0387503	0.896204	-0.565926	0.968712	1.14726	0.235351	0	0	0.502766	-0.559316	0.25709	1.09409	0.617772	0	0
0.25	3.03609	1.09333	-1.38181	0.880657	-0.414664	1.10549	-0.26501	0.130352	0.00585815	0.351892	-0.256379	0	0	-0.183939	-0.204847	-0.0508888	1.34671	-0.265011	0	0	-0.622533	0.157822	0.13144	0.840834	-0.559603	0.958195	1.13371	0.265348	0	0	0.417264	-0.508727	0.176873	1.08395	0.655145	0	0
0.26	3.03771	1.09594	-1.38831	0.880537	-0.403	1.10759	-0.277226	0.125595	-0.00175055	0.348745	-0.252408	0	0	-0.159866	-0.198589	-0.0511197	1.34003	-0.251516	0	0	-0.620048	0.152876	0.135537	0.838258	-0.558904	0.952506	1.13209	0.272757	0	0	0.417868	-0.503198	0.171609	1.08015	0.664812	0	0
0.27	3.04014	1.09905	-1.39578	0.880386	-0.391318	1.10958	-0.288981	0.12025	-0.0103387	0.34491	-0.249289	0	0	-0.136993	-0.192702	-0.0548325	1.32858	-0.231045	0	0	-0.617139	0.14715	0.139574	0.834314	-0.557918	0.944599	1.13084	0.281796	0	0	0.418492	-0.497717	0.166132	1.07651	0.67585	0	0
0.28	3.04268	1.10182	-1.40395	0.880276	-0.379705	1.11147	-0.300639	0.114917	-0.0185263	0.341692	-0.247478	0	0	-0.116184	-0.187387	-0.061086	1.31252	-0.212391	0	0	-0.614981	0.141099	0.143794	0.831221	-0.557001	0.937603	1.13008	0.290022	0	0	0.418438	-0.49354	0.160975	1.07462	0.683738	0	0
0.29	3.04622	1.10457	-1.41326	0.880121	-0.368175	1.11322	-0.311739	0.108959	-0.027084	0.338841	-0.246425	0	0	-0.0967612	-0.182158	-0.0698526	1.29224	-0.196598	0	0	-0.613012	0.134644	0.147658	0.828692	-0.555979	0.931212	1.12961	0.297267	0	0	0.418346	-0.490175	0.156412	1.07342	0.689695	0	0
0.3	3.05026	1.10785	-1.42303	0.879884	-0.356678	1.11472	-0.321623	0.10264	-0.0357104	0.337049	-0.245177	0	0	-0.0783072	-0.177639	-0.0809564	1.26863	-0.18367	0	0	-0.610515	0.128042	0.15113	0.826537	-0.555017	0.925522	1.12944	0.30369	0	0	0.418159	-0.487605	0.152539	1.07265	0.694712	0	0
